<?xml version="1.0" encoding="utf-8"?>
<!-- Generator: Adobe Illustrator 19.2.1, SVG Export Plug-In . SVG Version: 6.00 Build 0)  -->
<svg version="1.1" id="Layer_1" xmlns="http://www.w3.org/2000/svg" xmlns:xlink="http://www.w3.org/1999/xlink" x="0px" y="0px"
	 viewBox="0 0 8.4 8.8" style="enable-background:new 0 0 8.4 8.8;" xml:space="preserve">
<style type="text/css">
	.st0{fill:#E64D3C;}
	.st1{opacity:0.5;fill:#C03B2B;enable-background:new    ;}
	.st2{fill:#ECF0F2;}
	.st3{fill:#C7D7DB;}
</style>
<path class="st0" d="M6.6,2.5C6.6,1.1,5.5,0,4.2,0C2.8,0,1.7,1.1,1.7,2.5c0,0.9,0.4,1.6,1.1,2.1L4,7.5c0,0.1,0.1,0.1,0.1,0.1
	c0.1,0,0.1,0,0.1-0.1l1.2-2.9C6.2,4.1,6.6,3.3,6.6,2.5L6.6,2.5z"/>
<path class="st1" d="M4.2,7.5C4.3,7.5,4.3,7.5,4.2,7.5l1.3-3c0.7-0.4,1.1-1.2,1.1-2.1C6.6,1.1,5.5,0,4.2,0"/>
<path class="st0" d="M4.5,8.4c0,0.2-0.1,0.3-0.3,0.3S3.9,8.6,3.9,8.4S4,8.1,4.2,8.1C4.3,8.1,4.5,8.3,4.5,8.4L4.5,8.4z"/>
<path class="st2" d="M5.2,2.4c0,0.6-0.5,1-1,1c-0.6,0-1-0.5-1-1c0-0.6,0.5-1,1-1C4.7,1.4,5.2,1.9,5.2,2.4L5.2,2.4z"/>
<path class="st3" d="M4.2,1.4c0.6,0,1,0.5,1,1c0,0.6-0.5,1-1,1"/>
</svg>
