<?xml version="1.0" encoding="utf-8"?>
<!-- Generator: Adobe Illustrator 19.2.1, SVG Export Plug-In . SVG Version: 6.00 Build 0)  -->
<svg version="1.1" id="Layer_1" xmlns="http://www.w3.org/2000/svg" xmlns:xlink="http://www.w3.org/1999/xlink" x="0px" y="0px"
	 viewBox="0 0 6.8 7.4" style="enable-background:new 0 0 6.8 7.4;" xml:space="preserve">
<style type="text/css">
	.st0{clip-path:url(#SVGID_2_);fill:#E57E25;}
	.st1{fill:#FFFFFF;}
	.st2{fill:#FFCE09;}
	.st3{fill:#F7B419;}
</style>
<g>
	<g>
		<defs>
			<rect id="SVGID_1_" x="0.6" y="0.7" width="5.5" height="6"/>
		</defs>
		<clipPath id="SVGID_2_">
			<use xlink:href="#SVGID_1_"  style="overflow:visible;"/>
		</clipPath>
		<path class="st0" d="M6.1,3.1L3.9,0.9c-0.3-0.2-0.7-0.2-1.1,0L0.6,3.1v3.5h5.5V3.1z"/>
	</g>
</g>
<path class="st1" d="M4.1,2.8L3.4,2.1l0,0H3.3l0,0L2.6,2.8c0,0,0,0.1,0,0.2h0.1h0.1l0.6-0.6v1.7c0,0.1,0.1,0.1,0.1,0.1
	c0.1,0,0.1-0.1,0.1-0.1V2.4L4.1,3h0.1h0.1C4.1,2.9,4.1,2.8,4.1,2.8L4.1,2.8z"/>
<path class="st2" d="M6.1,6.5L3.8,4.8c-0.2-0.2-0.7-0.2-0.9,0C2.1,5.3,0.6,6.5,0.6,6.5H6.1z"/>
<path class="st3" d="M3,4.8L3,4.8L0.6,3.1v3.4C0.6,6.5,2.1,5.3,3,4.8C2.9,4.8,2.9,4.8,3,4.8L3,4.8z"/>
<path class="st3" d="M3.7,4.8L3.7,4.8C3.7,4.8,3.8,4.8,3.7,4.8L6,6.5V3.1L3.7,4.8z"/>
</svg>
