<?xml version="1.0" encoding="utf-8"?>
<!-- Generator: Adobe Illustrator 19.2.1, SVG Export Plug-In . SVG Version: 6.00 Build 0)  -->
<svg version="1.1" id="Layer_1" xmlns="http://www.w3.org/2000/svg" xmlns:xlink="http://www.w3.org/1999/xlink" x="0px" y="0px"
	 viewBox="0 0 12.6 13.7" style="enable-background:new 0 0 12.6 13.7;" xml:space="preserve">
<style type="text/css">
	.st0{fill:#6CBB66;}
	.st1{fill:#5EAA59;}
	.st2{fill:#5C9B56;}
	.st3{fill:#FFFFFF;}
</style>
<path class="st0" d="M12.6,3l0-0.4l-0.4,0c-1.6-0.2-3.1-0.8-4-1.3c-1-0.5-1.6-1-1.6-1L6.3,0L6,0.3c0,0-0.6,0.5-1.6,1
	c-0.9,0.5-2.3,1.1-4,1.3L0,2.6L0,3C0,3.1-0.1,5,0.6,7.2c0.4,1.3,1,2.5,1.8,3.5c1,1.3,2.2,2.3,3.7,3l0.2,0.1l0.2-0.1
	c1.5-0.7,2.7-1.7,3.7-3c0.8-1,1.4-2.2,1.8-3.5C12.7,5,12.6,3.1,12.6,3L12.6,3z"/>
<path class="st1" d="M6.3,12.6c-1.2-0.6-2.3-1.5-3.1-2.5C2.5,9.2,2,8.1,1.6,6.9C1.1,5.4,1,4.1,1,3.5C1.7,3.4,2.3,3.2,3,3
	c0.6-0.2,1.3-0.5,1.9-0.8C5.5,1.8,6,1.5,6.3,1.3c0.3,0.2,0.8,0.5,1.4,0.9C8.3,2.5,9,2.8,9.6,3c0.7,0.2,1.3,0.4,2,0.5
	c0,0.6-0.1,1.9-0.6,3.4c-0.4,1.2-0.9,2.3-1.6,3.2C8.6,11.1,7.5,12,6.3,12.6L6.3,12.6z"/>
<polygon class="st2" points="9.7,5.1 8.3,5.3 5.7,7.9 4.4,6.6 4.2,6.4 3.5,6.9 3.5,7.1 5.7,9.3 9.7,5.3 "/>
<polygon class="st3" points="9,4.4 8.3,5.1 5.7,7.7 4.4,6.4 4.2,6.2 3.9,6.6 3.5,6.9 5.7,9.1 9.7,5.1 "/>
<path class="st3" d="M9,4.6"/>
</svg>
