<?xml version="1.0" encoding="utf-8"?>
<!-- Generator: Adobe Illustrator 19.2.1, SVG Export Plug-In . SVG Version: 6.00 Build 0)  -->
<svg version="1.1" id="Layer_1" xmlns="http://www.w3.org/2000/svg" xmlns:xlink="http://www.w3.org/1999/xlink" x="0px" y="0px"
	 viewBox="0 0 8.1 8.3" style="enable-background:new 0 0 8.1 8.3;" xml:space="preserve">
<style type="text/css">
	.st0{fill:#FFD24E;}
	.st1{fill:#F04843;}
	.st2{fill:#17A186;}
	.st3{clip-path:url(#SVGID_2_);fill:#29B99A;}
</style>
<path class="st0" d="M8.1,2c0-1.1-1.1-2-2.5-2C4.2,0,3.1,0.9,3.1,2c0,1,0.9,1.8,2.1,1.9h0C5.2,4.3,5.1,4.7,4.8,5C5.4,5,6,4.5,6,3.9
	h0C7.2,3.8,8.1,3,8.1,2z"/>
<g>
	<circle class="st1" cx="4.7" cy="2" r="0.2"/>
	<circle class="st1" cx="6.5" cy="2" r="0.2"/>
	<circle class="st1" cx="5.6" cy="2" r="0.2"/>
</g>
<path class="st2" d="M5.6,6.3C5.2,5.9,4.8,5.6,4.8,5.6L4.2,6.2L1.9,3.8l0.6-0.6c0,0-0.3-0.4-0.7-0.8C1.4,2.1,1,1.8,1,1.8
	S0.3,2.4,0.3,2.9C0.2,3.6,0.9,4.9,2.1,6c1.1,1.1,2.4,1.9,3.1,1.8c0.5,0,1.2-0.8,1.2-0.8S6,6.7,5.6,6.3z"/>
<g>
	<defs>
		<polygon id="SVGID_1_" points="0,1.7 6.6,8.3 7.6,7.3 1,0.6 		"/>
	</defs>
	<clipPath id="SVGID_2_">
		<use xlink:href="#SVGID_1_"  style="overflow:visible;"/>
	</clipPath>
	<path class="st3" d="M5.6,6.3C5.2,5.9,4.8,5.6,4.8,5.6L4.2,6.2L1.9,3.8l0.6-0.6c0,0-0.3-0.4-0.7-0.8C1.4,2.1,1,1.8,1,1.8
		S0.3,2.4,0.3,2.9C0.2,3.6,0.9,4.9,2.1,6c1.1,1.1,2.4,1.9,3.1,1.8c0.5,0,1.2-0.8,1.2-0.8S6,6.7,5.6,6.3z"/>
</g>
</svg>
